<svg xmlns="http://www.w3.org/2000/svg" width="406" height="397" viewBox="0 0 406 397" version="1.1"><rect width="100%" height="100%" fill="black"/>
	<path d="M 30.247 203.747 L 30.500 376.500 203 376.500 L 375.500 376.500 375.500 204 L 375.500 31.500 202.747 31.247 L 29.994 30.994 30.247 203.747 M 46 204 L 46 361 203 361 L 360 361 360 204 L 360 47 203 47 L 46 47 46 204 M 237.607 71.582 C 236.759 73.792, 236.823 74, 238.345 74 C 239.085 74, 240.505 73.100, 241.500 72 C 243.265 70.050, 243.247 70, 240.762 70 C 239.361 70, 237.941 70.712, 237.607 71.582 M 74 88.930 C 74 101.236, 74.114 102, 75.956 102 C 77.691 102, 77.946 101.179, 78.206 94.750 L 78.500 87.500 80.083 92 C 80.954 94.475, 82.267 96.500, 83 96.500 C 83.733 96.500, 85.046 94.475, 85.917 92 L 87.500 87.500 87.794 94.750 C 88.054 101.179, 88.309 102, 90.044 102 C 91.886 102, 92 101.236, 92 88.930 C 92 76.039, 91.970 75.865, 89.802 76.180 C 88.076 76.431, 87.177 77.840, 85.610 82.750 C 84.513 86.188, 83.338 89, 83 89 C 82.662 89, 81.487 86.188, 80.390 82.750 C 78.823 77.840, 77.924 76.431, 76.198 76.180 C 74.030 75.865, 74 76.039, 74 88.930 M 103 89 C 103 101.333, 103.103 102, 105 102 C 106.897 102, 107 101.333, 107 89 C 107 76.667, 106.897 76, 105 76 C 103.103 76, 103 76.667, 103 89 M 119.872 77.652 C 117.965 79.948, 117.497 95.674, 119.238 99 C 121.764 103.829, 131 102.137, 131 96.845 C 131 94.538, 128.143 94.422, 126.505 96.662 C 125.785 97.647, 124.619 98.068, 123.645 97.694 C 122.312 97.183, 122 95.576, 122 89.231 C 122 84.777, 122.484 80.916, 123.122 80.278 C 124.697 78.703, 127 79.833, 127 82.180 C 127 83.510, 127.563 84.038, 128.739 83.812 C 131.153 83.347, 131.520 80.233, 129.433 77.926 C 127.273 75.539, 121.759 75.381, 119.872 77.652 M 142 89 C 142 101.333, 142.103 102, 144 102 C 145.758 102, 146 101.333, 146 96.500 C 146 91.716, 146.254 91, 147.948 91 C 149.592 91, 149.943 91.817, 150.198 96.241 C 150.431 100.291, 150.897 101.557, 152.250 101.814 C 153.844 102.117, 154 100.984, 154 89.073 C 154 76.667, 153.898 76, 152 76 C 150.242 76, 150 76.667, 150 81.500 C 150 86.333, 149.758 87, 148 87 C 146.242 87, 146 86.333, 146 81.500 C 146 76.667, 145.758 76, 144 76 C 142.103 76, 142 76.667, 142 89 M 167.571 77.571 C 166.357 78.786, 166 81.365, 166 88.916 C 166 97.115, 166.295 98.957, 167.829 100.345 C 170.309 102.590, 174.570 102.430, 177 100 C 178.696 98.304, 179 96.667, 179 89.223 C 179 78.695, 177.678 76, 172.515 76 C 170.660 76, 168.436 76.707, 167.571 77.571 M 192.521 78.250 C 187.206 101.378, 187.094 102.321, 189.706 101.818 C 190.645 101.637, 191.675 100.367, 191.997 98.995 C 192.356 97.463, 193.399 96.381, 194.699 96.193 C 196.351 95.953, 196.963 96.556, 197.487 98.943 C 197.968 101.132, 198.737 102, 200.196 102 C 201.820 102, 202.111 101.544, 201.632 99.750 C 201.301 98.513, 200.018 92.662, 198.782 86.750 C 196.960 78.042, 196.201 76, 194.786 76 C 193.793 76, 192.815 76.972, 192.521 78.250 M 212.200 77.200 C 211.418 77.982, 211 82.089, 211 89 C 211 95.911, 211.418 100.018, 212.200 100.800 C 213.912 102.512, 219.573 102.284, 221.429 100.429 C 223.699 98.158, 223.450 95, 221 95 C 219.889 95, 219 95.667, 219 96.500 C 219 97.333, 218.111 98, 217 98 C 215.149 98, 215 97.333, 215 89.059 C 215 84.141, 215.359 79.896, 215.798 79.625 C 216.901 78.943, 218.520 80.159, 219.292 82.250 C 219.647 83.213, 220.626 84, 221.469 84 C 223.506 84, 223.479 79.621, 221.429 77.571 C 219.573 75.716, 213.912 75.488, 212.200 77.200 M 236.662 77.693 C 236.383 78.687, 235.189 84, 234.010 89.500 C 232.830 95, 231.673 100.094, 231.438 100.819 C 231.153 101.696, 231.748 102.031, 233.214 101.819 C 234.606 101.617, 235.632 100.579, 236 99 C 236.358 97.461, 237.396 96.382, 238.699 96.193 C 240.351 95.953, 240.963 96.556, 241.487 98.943 C 241.952 101.058, 242.751 102, 244.079 102 C 245.136 102, 245.979 101.662, 245.953 101.250 C 245.928 100.838, 244.677 95.104, 243.173 88.508 C 241.150 79.633, 240.015 76.434, 238.805 76.201 C 237.898 76.026, 236.945 76.691, 236.662 77.693 M 256 89.073 C 256 100.989, 256.155 102.116, 257.750 101.800 C 259.206 101.512, 259.500 100.339, 259.500 94.822 C 259.500 91.175, 259.786 88.367, 260.136 88.584 C 260.486 88.800, 261.807 91.908, 263.071 95.489 C 264.758 100.268, 265.853 102, 267.185 102 C 268.845 102, 269 100.892, 269 89 C 269 76.667, 268.897 76, 267 76 C 265.205 76, 264.992 76.693, 264.922 82.750 L 264.845 89.500 262.284 82.750 C 260.388 77.751, 259.241 76, 257.862 76 C 256.141 76, 256 76.990, 256 89.073 M 297 89 L 297 102 301 102 C 303.667 102, 305.667 101.333, 307 100 C 308.718 98.282, 309 96.667, 309 88.557 C 309 79.932, 308.807 78.978, 306.777 77.557 C 305.555 76.701, 302.855 76, 300.777 76 L 297 76 297 89 M 320.966 76.500 C 320.947 76.775, 320.914 82.513, 320.893 89.250 L 320.854 101.500 326.427 101.800 C 331.476 102.072, 332 101.907, 332 100.050 C 332 98.320, 331.366 98, 327.940 98 L 323.879 98 324.190 94.281 C 324.472 90.898, 324.770 90.559, 327.482 90.531 C 329.462 90.510, 330.574 89.935, 330.792 88.818 C 331.038 87.560, 330.286 87.056, 327.810 86.818 C 324.901 86.538, 324.463 86.114, 324.191 83.314 C 323.898 80.282, 324.067 80.112, 327.683 79.814 C 330.352 79.593, 331.582 78.979, 331.815 77.750 C 332.099 76.253, 331.341 76, 326.573 76 C 323.508 76, 320.984 76.225, 320.966 76.500 M 171.250 79.718 C 170.376 80.032, 170 82.870, 170 89.153 C 170 97.900, 170.060 98.131, 172.250 97.820 C 174.343 97.522, 174.520 96.937, 174.788 89.404 C 174.991 83.702, 174.695 81.006, 173.788 80.288 C 173.080 79.727, 171.938 79.471, 171.250 79.718 M 300.210 88.675 C 300.475 96.737, 300.673 97.500, 302.500 97.500 C 304.343 97.500, 304.500 96.833, 304.500 89 C 304.500 80.902, 304.392 80.485, 302.210 80.175 C 299.954 79.855, 299.924 79.980, 300.210 88.675 M 238.057 86.500 C 238.010 87.600, 237.701 89.513, 237.370 90.750 C 236.926 92.404, 237.195 93, 238.383 93 C 240.155 93, 240.451 89.877, 239 86.500 L 238.141 84.500 238.057 86.500 M 194.002 87 C 193.986 87.825, 193.701 89.513, 193.370 90.750 C 192.926 92.404, 193.195 93, 194.383 93 C 196.200 93, 196.567 89.425, 195 87 C 194.138 85.667, 194.027 85.667, 194.002 87 M 90.627 127.408 C 84.923 129.530, 79.839 134.073, 77.004 139.580 L 74.500 144.446 74.500 214.473 C 74.500 279.877, 74.621 284.812, 76.326 289.232 C 78.648 295.250, 85.366 301.281, 91.740 303.071 C 98.177 304.878, 107.086 304.500, 112.249 302.202 C 114.587 301.161, 118.367 298.275, 120.649 295.787 C 123.713 292.447, 125.102 289.857, 125.963 285.882 C 126.805 281.995, 127.041 261.472, 126.814 212 C 126.518 147.425, 126.393 143.299, 124.636 140 C 121.998 135.047, 118.143 131.150, 113.500 128.743 C 108.335 126.065, 96.150 125.354, 90.627 127.408 M 144.995 127.120 C 144.993 127.329, 144.880 173.738, 144.745 230.250 L 144.500 333 152.250 333 L 160 333 160 260.500 L 160 188 164.280 188 L 168.560 188 175.802 210.500 L 183.043 233 190.960 233 L 198.876 233 190.757 208.826 L 182.637 184.653 185.069 183.089 C 189.689 180.118, 192.984 175.793, 194.489 170.724 C 196.441 164.152, 196.425 150.793, 194.457 144.167 C 192.539 137.707, 187.879 132.281, 182 129.661 C 178.281 128.003, 174.681 127.576, 161.250 127.198 C 152.313 126.946, 144.998 126.911, 144.995 127.120 M 216 134.500 L 216 142 242.500 142 L 269 142 269 134.500 L 269 127 242.500 127 L 216 127 216 134.500 M 286.667 127.667 C 286.300 128.033, 286 155.033, 286 187.667 L 286 247 309 247 L 332 247 332 240 L 332 233 317 233 L 302 233 302 210.030 L 302 187.060 314.750 186.780 L 327.500 186.500 327.796 179.750 L 328.091 173 315.046 173 L 302 173 302 157.500 L 302 142 316.500 142 L 331 142 331 134.500 L 331 127 309.167 127 C 297.158 127, 287.033 127.300, 286.667 127.667 M 92.923 143.923 L 90 146.846 90 215.236 L 90 283.626 92.892 286.396 C 95.179 288.588, 96.727 289.167, 100.300 289.167 C 102.860 289.167, 105.936 288.433, 107.401 287.473 C 108.823 286.541, 110.462 284.141, 111.044 282.140 C 111.755 279.695, 112.003 256.881, 111.801 212.668 L 111.500 146.835 108.234 143.918 C 105.638 141.598, 104.034 141, 100.407 141 C 96.699 141, 95.299 141.547, 92.923 143.923 M 160 157.500 L 160 174 165.032 174 C 170.828 174, 175.649 172.231, 178.466 169.071 C 180.073 167.268, 180.438 165.372, 180.466 158.683 C 180.506 149.153, 178.922 144.528, 174.909 142.453 C 173.360 141.652, 169.384 141, 166.050 141 L 160 141 160 157.500 M 234.810 158.347 C 228.975 159.981, 223.998 163.329, 221.086 167.579 C 216.043 174.939, 216 175.604, 216 246.110 C 216 289.142, 216.371 313.631, 217.072 316.900 C 218.486 323.493, 223.071 329.675, 228.312 332.055 C 233.444 334.385, 243.592 334.615, 248.616 332.516 C 250.569 331.700, 253.419 329.692, 254.949 328.054 L 257.731 325.077 259.517 329.038 C 261.150 332.658, 261.636 333, 265.152 333 L 269 333 269 267.500 L 269 202 255 202 L 241 202 241 209 L 241 216 247.500 216 L 254 216 253.989 260.750 C 253.983 285.363, 253.694 307.216, 253.348 309.314 C 252.971 311.594, 251.536 314.310, 249.782 316.064 C 247.404 318.442, 245.991 319, 242.346 319 C 238.706 319, 237.288 318.442, 234.923 316.077 L 232 313.154 232 246.212 C 232 180.201, 232.029 179.233, 234.054 176.659 C 235.183 175.223, 237.792 173.543, 239.852 172.926 C 242.875 172.021, 244.316 172.105, 247.334 173.366 C 249.951 174.460, 251.511 175.979, 252.536 178.432 C 253.341 180.359, 254 183.525, 254 185.468 L 254 189 261.500 189 L 269 189 268.994 184.250 C 268.987 177.915, 267.634 173.391, 264.061 167.757 C 262.022 164.543, 259.572 162.310, 256.217 160.610 C 250.133 157.527, 241.132 156.575, 234.810 158.347 M 184 253.750 L 184 261 191.544 261 L 199.088 261 198.794 253.900 L 198.500 246.800 191.250 246.650 L 183.999 246.500 184 253.750 M 286 297.954 L 286 333 292.480 333 L 298.960 333 299.230 311.824 L 299.500 290.648 309.113 311.574 L 318.726 332.500 325.363 332.796 L 332 333.091 332 298.046 L 332 263 325.500 263 L 319 263 318.988 285.250 L 318.976 307.500 309.154 285.500 L 299.331 263.500 292.666 263.204 L 286 262.909 286 297.954 M 184 304 L 184 333 191.500 333 L 199 333 199 304 L 199 275 191.500 275 L 184 275 184 304 M 74 326 L 74 333 100.500 333 L 127 333 127 326 L 127 319 100.500 319 L 74 319 74 326" stroke="none" fill="#FFFFFF" fill-rule="evenodd"/>
</svg>