<svg xmlns="http://www.w3.org/2000/svg" xmlns:xlink="http://www.w3.org/1999/xlink" width="816" zoomAndPan="magnify" viewBox="0 0 612 791.999994" height="1056" preserveAspectRatio="xMidYMid meet" version="1.0"><path fill="#000000" d="M 321.300781 239.53125 C 321.066406 241.089844 320.054688 245.730469 319.050781 249.847656 C 313.589844 272.207031 308.746094 280.246094 270.746094 330.03125 C 265.761719 336.5625 263.835938 341.125 263.449219 347.335938 C 263.054688 353.675781 263.882812 357.542969 267.070312 364.246094 C 271.378906 373.296875 280.984375 383.835938 287.914062 387.117188 C 292.945312 389.5 298.292969 389.8125 303.601562 388.039062 C 313.472656 384.734375 322.804688 376.941406 326.777344 368.679688 C 328.019531 366.105469 330.304688 362.738281 332.03125 360.949219 C 337.09375 355.695312 340.160156 349.136719 340.179688 343.519531 C 340.1875 342.117188 341.03125 340.359375 342.972656 337.722656 C 346.511719 332.917969 348.25 327.445312 348.25 321.125 C 348.25 318.515625 347.996094 315.488281 347.683594 314.398438 C 347.277344 312.988281 347.382812 311.554688 348.039062 309.441406 C 349.433594 304.964844 348.832031 296.035156 346.691406 289.410156 C 345.394531 285.402344 344.957031 282.730469 344.863281 278.25 C 344.710938 271.046875 343.351562 267.261719 338.714844 261.097656 C 336.941406 258.742188 334.839844 255.007812 334.046875 252.804688 C 332.265625 247.875 327.863281 241.085938 324.816406 238.574219 C 323.566406 237.542969 322.359375 236.699219 322.132812 236.699219 C 321.910156 236.699219 321.535156 237.972656 321.300781 239.53125 M 323.441406 251.738281 C 318.339844 272.789062 312.152344 283.5 283.242188 321.316406 C 277.234375 329.179688 271.554688 337.011719 270.625 338.722656 C 265.519531 348.128906 268.101562 360.242188 277.761719 372.199219 C 283.519531 379.328125 289.367188 383.402344 295.449219 384.523438 C 297.464844 384.894531 297.519531 384.851562 297.128906 383.207031 C 296.128906 379.007812 293.335938 374.554688 289.449219 370.960938 C 277.472656 359.882812 275.390625 356.726562 275.445312 349.738281 C 275.46875 346.488281 275.878906 345.070312 278.042969 340.746094 C 280.898438 335.042969 282.726562 332.785156 296.582031 317.820312 C 316.875 295.902344 325.457031 283.859375 329.648438 271.421875 C 331.355469 266.351562 331.390625 259.421875 329.734375 254.617188 C 328.667969 251.527344 325.667969 246 325.0625 246 C 324.933594 246 324.207031 248.582031 323.441406 251.738281 M 335.058594 269.695312 C 334.484375 272.132812 332.636719 276.9375 330.945312 280.375 C 325.074219 292.308594 318.804688 300.535156 300.164062 320.75 C 293.394531 328.089844 286.898438 335.414062 285.730469 337.023438 C 282.183594 341.921875 279.933594 347.253906 280.152344 350.238281 L 280.347656 352.863281 L 286 346.398438 C 292.136719 339.382812 300.363281 331.585938 313.644531 320.210938 C 325.75 309.84375 334.953125 298.367188 338.453125 289.273438 C 341.082031 282.449219 340.496094 271.84375 337.226562 266.949219 L 336.097656 265.265625 Z M 341.554688 293.949219 C 338.875 301.355469 327.097656 315.078125 313.832031 326.246094 C 300.199219 337.722656 283.136719 355.292969 283.136719 357.851562 C 283.136719 358.292969 283.828125 359.300781 284.675781 360.097656 L 286.214844 361.542969 L 293.515625 354.46875 C 297.53125 350.578125 305.417969 343.90625 311.039062 339.640625 C 323.8125 329.957031 334.71875 320.898438 338.230469 317.0625 C 343.265625 311.5625 345.230469 304.753906 343.898438 297.417969 C 342.933594 292.082031 342.472656 291.40625 341.554688 293.949219 M 342.070312 319.757812 C 341.132812 321.511719 328.945312 331.832031 317.59375 340.480469 C 305.992188 349.320312 296.316406 357.480469 292.53125 361.613281 L 289.832031 364.558594 L 291.550781 366.351562 C 292.976562 367.839844 293.433594 368.015625 294.238281 367.382812 C 294.769531 366.960938 297.164062 364.984375 299.558594 362.992188 C 305.0625 358.40625 316.007812 351.074219 325.617188 345.539062 C 334.839844 340.226562 340.019531 335.3125 342.015625 329.980469 C 344.375 323.671875 344.421875 315.367188 342.070312 319.757812 M 319.40625 355.628906 C 310.871094 361.332031 302.285156 367.222656 300.320312 368.71875 C 296.996094 371.253906 296.808594 371.53125 297.585938 372.75 C 298.015625 373.425781 298.4375 374.109375 298.851562 374.796875 C 299.152344 375.308594 300.753906 374.625 304.078125 372.566406 C 306.714844 370.9375 312.320312 367.8125 316.53125 365.628906 C 325.164062 361.152344 330.371094 356.894531 332.851562 352.273438 C 334.269531 349.636719 335.703125 345.191406 335.121094 345.242188 C 335.007812 345.25 327.9375 349.925781 319.40625 355.628906 M 315.074219 371.617188 C 311.664062 373.503906 307.128906 376.183594 305 377.570312 C 301.511719 379.84375 301.167969 380.25 301.523438 381.726562 C 301.738281 382.625 301.972656 383.433594 302.042969 383.523438 C 302.335938 383.898438 307.136719 381.554688 310.734375 379.28125 C 314.578125 376.855469 319.515625 372.121094 320.902344 369.527344 C 321.300781 368.78125 321.550781 368.171875 321.453125 368.175781 C 321.355469 368.179688 318.484375 369.726562 315.074219 371.617188 M 237.832031 419.59375 C 233.003906 421.101562 230.84375 424.234375 230.777344 429.816406 C 230.730469 434.007812 232.011719 436.910156 234.851562 439.023438 C 236.921875 440.566406 241.394531 441.089844 244.3125 440.125 C 246.640625 439.359375 249.378906 436.378906 249.746094 434.214844 C 249.921875 433.191406 249.570312 432.941406 247.746094 432.789062 C 245.882812 432.632812 245.421875 432.851562 244.808594 434.195312 C 242.953125 438.269531 237.242188 437.257812 236 432.636719 C 234.695312 427.792969 236.933594 423.359375 240.683594 423.359375 C 242.304688 423.359375 243.105469 423.789062 244.164062 425.222656 C 245.210938 426.636719 246.03125 427.082031 247.59375 427.082031 C 249.207031 427.082031 249.648438 426.824219 249.648438 425.890625 C 249.648438 424.597656 247.042969 421.179688 245.394531 420.320312 C 243.761719 419.460938 239.550781 419.058594 237.832031 419.59375 M 278.382812 419.703125 C 275.957031 420.402344 273.214844 423.546875 273.214844 425.628906 C 273.214844 427.917969 276.175781 430.496094 280.136719 431.644531 C 285.230469 433.125 286.300781 435.0625 282.765625 436.40625 C 280.835938 437.140625 278.402344 436.222656 277.875 434.558594 C 277.574219 433.601562 276.945312 433.285156 275.378906 433.285156 C 272.703125 433.285156 272.335938 433.945312 273.480469 436.6875 C 275.679688 441.949219 286.355469 442.167969 289.027344 437.007812 C 291.09375 433.007812 288.886719 429.800781 282.863281 428.050781 C 278.96875 426.917969 277.636719 425.6875 278.796875 424.292969 C 279.925781 422.929688 282.972656 423.117188 283.898438 424.601562 C 284.414062 425.421875 285.347656 425.839844 286.660156 425.839844 C 289.070312 425.839844 289.488281 425.292969 288.523438 423.386719 C 286.925781 420.230469 282.332031 418.5625 278.382812 419.703125 M 347.011719 419.746094 C 342.246094 421.097656 339.957031 424.84375 340.292969 430.753906 C 340.683594 437.710938 344.476562 441.140625 351.152344 440.585938 C 357.027344 440.097656 360.03125 436.515625 360.03125 429.996094 C 360.035156 424.445312 357.644531 420.996094 352.902344 419.703125 C 350.042969 418.925781 349.910156 418.925781 347.011719 419.746094 M 257.78125 421.035156 C 257.496094 421.804688 255.828125 426.273438 254.078125 430.96875 C 252.324219 435.664062 250.890625 439.640625 250.890625 439.804688 C 250.890625 439.96875 251.960938 440.105469 253.269531 440.105469 C 255.5 440.105469 255.703125 439.945312 256.46875 437.625 L 257.289062 435.144531 L 264.335938 435.144531 L 265.078125 437.625 C 265.789062 439.988281 265.9375 440.105469 268.34375 440.105469 C 270.496094 440.105469 270.804688 439.945312 270.4375 439.019531 C 270.203125 438.421875 268.464844 433.816406 266.574219 428.789062 L 263.140625 419.640625 L 260.722656 419.640625 C 258.777344 419.640625 258.199219 419.914062 257.78125 421.035156 M 298.96875 420.726562 C 296.867188 426.105469 291.816406 439.582031 291.816406 439.8125 C 291.816406 439.972656 292.921875 440.105469 294.273438 440.105469 C 296.601562 440.105469 296.769531 439.976562 297.472656 437.625 L 298.214844 435.144531 L 305.265625 435.144531 L 306.007812 437.625 C 306.71875 439.988281 306.867188 440.105469 309.273438 440.105469 C 311.027344 440.105469 311.710938 439.867188 311.515625 439.328125 C 311.363281 438.902344 309.625 434.300781 307.652344 429.097656 L 304.066406 419.640625 L 301.730469 419.640625 C 300.078125 419.640625 299.269531 419.960938 298.96875 420.726562 M 319.105469 420.230469 C 319.105469 420.597656 320.699219 425.21875 322.648438 430.5 L 326.1875 440.105469 L 331.3125 440.105469 L 335.0625 430.027344 L 338.816406 419.949219 L 336.621094 419.753906 C 335.285156 419.632812 334.21875 419.875 333.90625 420.371094 C 333.621094 420.820312 332.367188 424.238281 331.121094 427.964844 L 328.855469 434.734375 L 326.261719 427.34375 L 323.667969 419.949219 L 321.386719 419.757812 C 320.054688 419.644531 319.105469 419.84375 319.105469 420.230469 M 363.199219 424.722656 C 364.46875 428.140625 365.738281 431.5625 367 434.988281 L 368.882812 440.105469 L 374 440.105469 L 377.558594 430.597656 C 379.515625 425.367188 381.117188 420.746094 381.117188 420.328125 C 381.117188 419.828125 380.339844 419.632812 378.871094 419.757812 L 376.625 419.949219 L 374.027344 427.304688 L 371.429688 434.65625 L 368.921875 427.304688 L 366.414062 419.949219 L 363.847656 419.761719 L 361.277344 419.570312 Z M 347.773438 423.777344 C 346.414062 424.324219 345.148438 427.527344 345.148438 430.425781 C 345.148438 434.09375 347.160156 436.589844 350.109375 436.589844 C 353.269531 436.589844 355.074219 434.125 355.074219 429.808594 C 355.074219 427.023438 354.796875 426.128906 353.550781 424.882812 C 352.109375 423.441406 349.734375 422.988281 347.773438 423.777344 M 259.632812 428.414062 C 258.65625 431.21875 258.738281 431.421875 260.878906 431.421875 C 262.386719 431.421875 262.722656 431.207031 262.425781 430.433594 C 262.21875 429.890625 261.878906 428.777344 261.671875 427.953125 C 261.160156 425.917969 260.445312 426.082031 259.632812 428.414062 M 300.625 428.519531 C 299.601562 431.355469 299.628906 431.421875 301.808594 431.421875 C 303.3125 431.421875 303.652344 431.207031 303.355469 430.433594 C 303.144531 429.890625 302.808594 428.777344 302.601562 427.953125 C 302.089844 425.914062 301.507812 426.082031 300.625 428.519531 M 408.652344 460.195312 C 408.472656 460.667969 408.410156 462.132812 408.519531 463.449219 L 408.714844 465.839844 L 418.792969 466.011719 L 428.867188 466.179688 L 428.867188 459.328125 L 418.925781 459.328125 C 410.996094 459.328125 408.917969 459.503906 408.652344 460.195312 M 201.070312 470.726562 C 195.460938 472.296875 192.519531 475.53125 192.148438 480.542969 C 191.707031 486.542969 194.394531 489.082031 204.507812 492.222656 C 211.203125 494.304688 212.441406 495.175781 212.441406 497.804688 C 212.441406 502.816406 200.941406 502.53125 199.675781 497.488281 C 199.300781 495.996094 199.070312 495.917969 194.929688 495.917969 L 190.574219 495.917969 L 190.941406 498.175781 C 191.550781 501.9375 194.128906 505.140625 197.96875 506.894531 C 201.023438 508.292969 202.003906 508.4375 207.070312 508.210938 C 211.648438 508.007812 213.273438 507.664062 215.445312 506.441406 C 222.5 502.46875 223.117188 492.601562 216.546875 488.824219 C 215.140625 488.019531 211.480469 486.605469 208.410156 485.6875 C 202.320312 483.867188 200.65625 482.800781 200.65625 480.722656 C 200.65625 478.503906 202.558594 477.3125 206.113281 477.3125 C 208.9375 477.3125 209.460938 477.527344 210.679688 479.171875 C 211.957031 480.90625 212.328125 481.035156 216.046875 481.035156 L 220.039062 481.035156 L 219.644531 479.070312 C 218.335938 472.535156 209.226562 468.441406 201.070312 470.726562 M 360.34375 470.4375 C 354.757812 471.988281 350.980469 475.101562 348.792969 479.953125 C 346.742188 484.511719 346.667969 494.195312 348.65625 498.496094 C 351.824219 505.347656 357.847656 508.683594 366.15625 508.1875 C 373.460938 507.75 377.738281 504.941406 380.582031 498.707031 C 382.355469 494.816406 382.246094 494.675781 377.472656 494.675781 C 373.351562 494.675781 373.183594 494.738281 372.460938 496.476562 C 371.28125 499.324219 369.082031 500.988281 366.050781 501.332031 C 362.292969 501.753906 359.386719 500.277344 357.5 496.980469 C 356.238281 494.78125 356.003906 493.53125 356.003906 489.097656 C 356.003906 484.644531 356.230469 483.460938 357.457031 481.484375 C 359.296875 478.527344 361.632812 477.3125 365.492188 477.3125 C 368.953125 477.3125 371.402344 479.039062 372.53125 482.273438 C 373.164062 484.097656 373.261719 484.132812 377.457031 484.132812 C 382.359375 484.132812 382.417969 484.042969 380.257812 479.484375 C 378.519531 475.8125 375.515625 472.792969 372.234375 471.425781 C 369.414062 470.25 362.957031 469.714844 360.34375 470.4375 M 414.296875 470.410156 C 408.453125 471.945312 403.6875 476.25 401.90625 481.613281 C 400.269531 486.539062 400.796875 495.140625 402.996094 499.421875 C 406.050781 505.355469 411.375 508.320312 418.980469 508.320312 C 426.582031 508.320312 431.878906 505.265625 434.882812 499.148438 C 436.453125 495.953125 436.621094 494.972656 436.621094 489.097656 C 436.621094 483.238281 436.457031 482.273438 434.972656 479.484375 C 432.902344 475.589844 430.609375 473.394531 426.871094 471.742188 C 423.660156 470.324219 417.226562 469.640625 414.296875 470.410156 M 138.644531 489.40625 L 138.644531 507.699219 L 146.707031 507.699219 L 146.707031 471.113281 L 138.644531 471.113281 Z M 153.527344 489.40625 L 153.527344 507.699219 L 162.179688 507.699219 L 162.351562 496.523438 L 162.519531 485.34375 L 176.191406 507.390625 L 184.535156 507.757812 L 184.535156 471.113281 L 176.5 471.113281 L 176.164062 493.628906 L 169.339844 482.390625 L 162.519531 471.15625 L 158.023438 471.132812 L 153.527344 471.113281 Z M 227.324219 489.40625 L 227.324219 507.699219 L 235.386719 507.699219 L 235.386719 494.675781 L 240.5 494.671875 C 246.820312 494.667969 249.6875 493.90625 252.417969 491.511719 C 254.832031 489.390625 255.953125 486.570312 255.953125 482.605469 C 255.953125 477.582031 254.144531 474.328125 250.242188 472.335938 C 248.132812 471.261719 246.574219 471.113281 237.582031 471.113281 L 227.324219 471.113281 Z M 260.8125 489.40625 L 260.8125 507.699219 L 268.875 507.699219 L 268.875 471.113281 L 260.8125 471.113281 Z M 276.316406 489.367188 L 276.316406 507.699219 L 284.375 507.699219 L 284.375 493.4375 L 290.585938 493.4375 L 294.132812 500.570312 L 297.683594 507.699219 L 306.679688 507.699219 L 304.433594 503.515625 C 303.078125 500.984375 301.710938 498.460938 300.335938 495.945312 C 298.914062 493.34375 298.683594 492.492188 299.335938 492.277344 C 301.167969 491.675781 304.144531 487.960938 304.828125 485.421875 C 306.117188 480.632812 304.375 475.738281 300.300781 472.71875 C 298.707031 471.535156 297.574219 471.40625 287.433594 471.226562 L 276.316406 471.035156 Z M 322.929688 472.195312 C 322.1875 473.636719 309.800781 506.730469 309.800781 507.277344 C 309.800781 507.507812 311.6875 507.699219 313.988281 507.699219 L 318.175781 507.699219 L 321.339844 498.707031 L 333.871094 498.355469 L 335.375 502.871094 L 336.878906 507.390625 L 341.320312 507.570312 L 345.757812 507.753906 L 343.964844 502.921875 C 341.734375 496.90625 333.003906 473.667969 332.421875 472.195312 C 332.074219 471.3125 331.214844 471.113281 327.742188 471.113281 C 324.316406 471.113281 323.378906 471.324219 322.929688 472.195312 M 386.699219 489.40625 L 386.699219 507.699219 L 395.382812 507.699219 L 395.382812 471.113281 L 386.699219 471.113281 Z M 442.511719 489.378906 L 442.511719 507.699219 L 451.195312 507.699219 L 451.195312 485.066406 L 465.148438 507.675781 L 469.332031 507.6875 L 473.519531 507.699219 L 473.519531 471.113281 L 465.484375 471.113281 L 465.148438 493.746094 L 458.269531 482.585938 L 451.390625 471.421875 L 446.949219 471.238281 L 442.511719 471.058594 Z M 414.105469 478.566406 C 409.699219 481.253906 408.066406 490.875 411.054688 496.53125 C 414.675781 503.378906 423.210938 503.042969 426.898438 495.914062 C 428.125 493.539062 428.300781 492.429688 428.089844 488.414062 C 427.699219 480.902344 424.699219 477.308594 418.824219 477.316406 C 417.242188 477.316406 415.320312 477.828125 414.105469 478.570312 M 235.386719 482.894531 L 235.386719 487.855469 L 239.898438 487.855469 C 245.785156 487.855469 247.167969 486.964844 247.167969 483.167969 C 247.167969 478.9375 245.800781 477.933594 240.035156 477.933594 L 235.386719 477.933594 Z M 284.375 482.585938 L 284.375 487.234375 L 288.4375 487.234375 C 294.882812 487.234375 297.734375 484.867188 296.191406 480.804688 C 295.335938 478.5625 293.710938 477.933594 288.757812 477.933594 L 284.375 477.933594 Z M 325.5625 486.640625 L 323.664062 492.195312 L 327.652344 492.195312 C 330.582031 492.195312 331.5625 491.992188 331.355469 491.421875 C 331.195312 490.996094 330.433594 488.691406 329.660156 486.304688 C 328.886719 483.917969 328.074219 481.765625 327.859375 481.523438 C 327.640625 481.28125 326.609375 483.585938 325.5625 486.640625 M 238.339844 539.675781 C 233.808594 542.136719 233.152344 550.097656 237.1875 553.710938 C 240.902344 557.042969 246.503906 556.34375 249.015625 552.230469 L 250.269531 550.179688 L 248.34375 549.980469 C 246.949219 549.835938 246.167969 550.136719 245.515625 551.066406 C 244.25 552.871094 240.746094 552.820312 239.453125 550.972656 C 238.078125 549.011719 238.234375 545.398438 239.773438 543.441406 C 241.414062 541.351562 243.605469 541.335938 245.230469 543.398438 C 246.171875 544.597656 246.941406 544.941406 248.347656 544.792969 C 250.207031 544.597656 250.210938 544.589844 249.292969 542.707031 C 247.511719 539.046875 242.207031 537.578125 238.339844 539.675781 M 349.964844 539.675781 C 348.007812 540.742188 347.203125 543.128906 348.019531 545.460938 C 348.445312 546.664062 349.457031 547.394531 351.988281 548.320312 C 356.34375 549.910156 356.957031 550.328125 356.527344 551.441406 C 355.988281 552.851562 352.148438 552.613281 351.207031 551.109375 C 350.738281 550.355469 349.761719 549.871094 348.722656 549.871094 C 344.929688 549.871094 347.914062 554.980469 352.171875 555.78125 C 356.359375 556.566406 360.652344 554.042969 360.652344 550.800781 C 360.652344 548.519531 358.855469 546.820312 355.363281 545.808594 C 351.617188 544.71875 350.886719 544.046875 351.992188 542.710938 C 352.964844 541.542969 354.710938 541.554688 355.691406 542.738281 C 356.6875 543.9375 360.035156 543.980469 360.035156 542.792969 C 360.035156 542.3125 359.175781 541.195312 358.125 540.3125 C 355.929688 538.464844 352.664062 538.210938 349.964844 539.675781 M 186.394531 547.351562 L 186.394531 555.449219 L 190.117188 555.449219 L 190.140625 551.265625 C 190.164062 547.390625 190.226562 547.195312 191.003906 548.628906 C 191.464844 549.480469 192.195312 551.367188 192.628906 552.816406 C 193.296875 555.058594 193.65625 555.449219 195.0625 555.449219 C 196.550781 555.449219 196.875 555.003906 198.335938 550.953125 L 199.957031 546.457031 L 199.996094 550.953125 L 200.039062 555.449219 L 203.757812 555.449219 L 203.757812 539.253906 L 201.5 539.445312 C 199.277344 539.632812 199.207031 539.722656 197.230469 544.910156 C 194.972656 550.828125 195.378906 550.957031 192.425781 543.359375 C 191.050781 539.824219 190.863281 539.628906 188.6875 539.445312 L 186.394531 539.253906 Z M 206.859375 547.390625 L 206.859375 555.449219 L 212.75 555.449219 C 218.621094 555.449219 218.640625 555.445312 218.640625 553.898438 C 218.640625 552.40625 218.496094 552.351562 214.609375 552.351562 L 210.578125 552.351562 L 210.578125 550.488281 C 210.578125 548.648438 210.613281 548.628906 213.992188 548.628906 C 217.214844 548.628906 217.402344 548.542969 217.402344 547.078125 C 217.402344 545.613281 217.214844 545.527344 213.992188 545.527344 C 210.765625 545.527344 210.578125 545.445312 210.578125 543.976562 C 210.578125 542.484375 210.722656 542.429688 214.609375 542.429688 C 218.496094 542.429688 218.640625 542.371094 218.640625 540.878906 C 218.640625 539.332031 218.621094 539.328125 212.75 539.328125 L 206.859375 539.328125 Z M 220.503906 540.847656 C 220.503906 542.289062 220.71875 542.382812 224.5 542.554688 L 228.492188 542.738281 L 224.5 547.628906 C 222.085938 550.578125 220.503906 553.097656 220.503906 553.984375 C 220.503906 555.433594 220.578125 555.449219 227.015625 555.449219 C 233.511719 555.449219 233.523438 555.449219 233.523438 553.929688 C 233.523438 552.488281 233.3125 552.398438 229.496094 552.222656 L 225.464844 552.039062 L 229.472656 547.078125 C 231.675781 544.351562 233.488281 541.488281 233.5 540.722656 C 233.523438 539.363281 233.359375 539.328125 227.015625 539.328125 C 220.515625 539.328125 220.503906 539.328125 220.503906 540.847656 M 256.15625 540.101562 C 256.003906 540.527344 254.644531 544.15625 253.136719 548.164062 L 250.390625 555.449219 L 252.441406 555.449219 C 254.160156 555.449219 254.59375 555.152344 255.136719 553.589844 C 255.726562 551.898438 256.035156 551.730469 258.546875 551.730469 C 261.058594 551.730469 261.367188 551.898438 261.957031 553.589844 C 262.488281 555.109375 262.953125 555.449219 264.5 555.449219 C 265.542969 555.449219 266.390625 555.257812 266.390625 555.023438 C 266.390625 554.785156 265.101562 551.160156 263.519531 546.960938 L 260.648438 539.328125 L 258.539062 539.328125 C 257.378906 539.328125 256.308594 539.675781 256.15625 540.101562 M 268.253906 547.390625 L 268.253906 555.449219 L 274.144531 555.449219 C 280.015625 555.449219 280.035156 555.445312 280.035156 553.898438 C 280.035156 552.417969 279.871094 552.351562 276.316406 552.351562 L 272.59375 552.351562 L 272.59375 539.328125 L 268.253906 539.328125 Z M 291.125 541.03125 C 290.757812 541.96875 289.675781 544.832031 288.71875 547.390625 C 287.921875 549.511719 287.121094 551.628906 286.3125 553.746094 C 285.671875 555.390625 285.714844 555.449219 287.667969 555.449219 C 289.339844 555.449219 289.804688 555.132812 290.386719 553.589844 C 291.023438 551.902344 291.351562 551.730469 293.875 551.730469 C 296.410156 551.730469 296.714844 551.894531 297.304688 553.589844 C 297.84375 555.128906 298.296875 555.449219 299.914062 555.449219 C 301.214844 555.449219 301.78125 555.191406 301.597656 554.675781 C 301.449219 554.25 300.121094 550.621094 298.648438 546.613281 L 295.96875 539.328125 L 293.878906 539.328125 C 292.171875 539.328125 291.664062 539.640625 291.125 541.03125 M 303.601562 547.390625 L 303.601562 555.449219 L 307.941406 555.449219 L 307.941406 552.351562 C 307.941406 549.671875 308.109375 549.25 309.171875 549.25 C 310.023438 549.25 310.882812 550.199219 311.972656 552.351562 C 313.328125 555.027344 313.796875 555.449219 315.394531 555.449219 C 317.632812 555.449219 317.648438 555.253906 315.667969 551.789062 C 314.132812 549.105469 314.128906 549.035156 315.273438 547.757812 C 316.96875 545.871094 317.277344 544.566406 316.53125 542.433594 C 315.621094 539.816406 314.367188 539.328125 308.601562 539.328125 L 303.601562 539.328125 Z M 317.863281 540.878906 C 317.863281 542.234375 318.132812 542.429688 320.035156 542.429688 L 322.203125 542.429688 L 322.203125 555.449219 L 326.546875 555.449219 L 326.546875 542.429688 L 328.714844 542.429688 C 330.617188 542.429688 330.886719 542.234375 330.886719 540.878906 L 330.886719 539.328125 L 317.863281 539.328125 Z M 332.746094 547.390625 L 332.746094 555.449219 L 345.148438 555.449219 L 345.148438 553.898438 C 345.148438 552.394531 345.027344 552.351562 340.769531 552.351562 L 336.386719 552.351562 L 336.582031 550.644531 C 336.765625 549.054688 336.996094 548.925781 340.035156 548.75 C 343.023438 548.578125 343.289062 548.441406 343.289062 547.046875 C 343.289062 545.621094 343.085938 545.527344 339.878906 545.527344 C 336.652344 545.527344 336.46875 545.445312 336.46875 543.976562 C 336.46875 542.484375 336.613281 542.429688 340.5 542.429688 C 344.386719 542.429688 344.53125 542.371094 344.53125 540.878906 C 344.53125 539.332031 344.507812 539.328125 338.640625 539.328125 L 332.746094 539.328125 Z M 367.402344 541.03125 C 367.035156 541.96875 365.953125 544.832031 364.996094 547.390625 C 364.199219 549.511719 363.398438 551.628906 362.589844 553.746094 C 361.945312 555.398438 361.988281 555.449219 364.019531 555.449219 C 365.789062 555.449219 366.214844 555.164062 366.761719 553.589844 C 367.351562 551.898438 367.660156 551.730469 370.171875 551.730469 C 372.683594 551.730469 372.992188 551.898438 373.582031 553.589844 C 374.113281 555.109375 374.578125 555.449219 376.125 555.449219 C 377.167969 555.449219 378.015625 555.28125 378.015625 555.070312 C 378.015625 554.863281 376.710938 551.234375 375.117188 547.007812 L 372.214844 539.328125 L 370.140625 539.328125 C 368.449219 539.328125 367.941406 539.644531 367.402344 541.03125 M 379.878906 547.390625 L 379.878906 555.449219 L 384.164062 555.449219 L 384.347656 550.953125 L 384.527344 546.457031 L 387.308594 550.953125 C 389.839844 555.054688 390.265625 555.449219 392.113281 555.449219 L 394.140625 555.449219 L 394.140625 539.328125 L 390.472656 539.328125 L 390.292969 544.128906 L 390.109375 548.933594 L 387.121094 544.128906 C 384.335938 539.65625 383.984375 539.328125 382.003906 539.328125 L 379.878906 539.328125 Z M 399.175781 546.597656 C 398.175781 549.292969 397.171875 551.984375 396.164062 554.675781 C 395.964844 555.195312 396.519531 555.449219 397.847656 555.449219 C 399.480469 555.449219 399.953125 555.121094 400.53125 553.589844 C 401.175781 551.886719 401.480469 551.730469 404.148438 551.730469 C 406.886719 551.730469 407.089844 551.84375 407.472656 553.589844 C 407.832031 555.214844 408.152344 555.449219 410.003906 555.449219 C 411.171875 555.449219 412.125 555.375 412.125 555.285156 C 412.125 555.195312 410.785156 551.636719 409.148438 547.378906 C 406.175781 539.65625 406.164062 539.636719 404.03125 539.464844 L 401.894531 539.296875 Z M 413.984375 547.390625 L 413.984375 555.449219 L 419.875 555.449219 C 425.714844 555.449219 425.769531 555.4375 425.769531 553.929688 C 425.769531 552.496094 425.542969 552.398438 421.890625 552.226562 L 418.015625 552.039062 L 417.664062 539.328125 L 413.984375 539.328125 Z M 307.941406 544.289062 C 307.941406 546.144531 308.035156 546.214844 310.265625 546.03125 C 312.285156 545.863281 312.59375 545.632812 312.59375 544.289062 C 312.59375 542.945312 312.285156 542.710938 310.265625 542.546875 C 308.035156 542.359375 307.941406 542.429688 307.941406 544.289062 M 257.824219 545.835938 C 256.761719 548.171875 256.902344 548.628906 258.683594 548.628906 C 260.046875 548.628906 260.214844 548.429688 259.847656 547.234375 C 258.988281 544.429688 258.589844 544.15625 257.824219 545.835938 M 293.105469 545.722656 C 292.140625 548.246094 292.257812 548.628906 293.988281 548.628906 C 295.808594 548.628906 295.78125 548.726562 294.65625 546.066406 L 293.773438 543.976562 Z M 369.378906 545.722656 C 368.417969 548.257812 368.535156 548.628906 370.308594 548.628906 C 371.671875 548.628906 371.839844 548.429688 371.472656 547.234375 C 370.546875 544.210938 370.082031 543.875 369.378906 545.722656 M 402.976562 546.480469 C 402.332031 548.582031 402.355469 548.628906 404.089844 548.628906 C 405.785156 548.628906 405.832031 548.554688 405.210938 546.765625 C 404.28125 544.105469 403.730469 544.035156 402.976562 546.480469 " fill-opacity="1" fill-rule="evenodd"/></svg>