<svg xmlns="http://www.w3.org/2000/svg" xmlns:xlink="http://www.w3.org/1999/xlink" width="816" zoomAndPan="magnify" viewBox="0 0 612 791.999994" height="1056" preserveAspectRatio="xMidYMid meet" version="1.0"><path fill="#000000" d="M 242.792969 288.449219 C 238.328125 290.390625 237.132812 297.960938 240.65625 301.976562 C 244.363281 306.199219 251.742188 305.140625 253.484375 300.140625 C 254.023438 298.589844 254.023438 298.585938 252.011719 298.585938 C 250.480469 298.585938 249.917969 298.824219 249.679688 299.582031 C 249.261719 300.890625 246.929688 301.671875 245.195312 301.085938 C 243.503906 300.511719 242.652344 298.703125 242.652344 295.679688 C 242.652344 291.628906 246.378906 289.328125 248.886719 291.832031 C 249.457031 292.40625 249.925781 293.105469 249.925781 293.390625 C 249.925781 293.675781 250.859375 293.910156 252.003906 293.910156 C 253.144531 293.910156 254.078125 293.769531 254.078125 293.59375 C 254.078125 293.417969 253.574219 292.375 252.957031 291.273438 C 251.09375 287.957031 246.71875 286.742188 242.792969 288.449219 M 275.578125 288.1875 C 273.652344 288.964844 272.144531 291.367188 272.480469 293.125 C 272.867188 295.121094 274.195312 296.210938 277.59375 297.308594 C 280.761719 298.335938 281.878906 299.21875 281.4375 300.363281 C 280.949219 301.632812 277.125 301.472656 276.296875 300.144531 C 275.832031 299.398438 275.085938 299.105469 273.660156 299.105469 C 271.839844 299.105469 271.699219 299.203125 272.027344 300.273438 C 272.941406 303.289062 276.46875 305.164062 280.082031 304.554688 C 286.488281 303.472656 287.167969 296.867188 281.070312 294.914062 C 277.214844 293.683594 276.417969 293.242188 276.417969 292.34375 C 276.417969 290.59375 279.671875 290.203125 280.691406 291.832031 C 281.507812 293.140625 284.726562 293.320312 284.726562 292.058594 C 284.726562 288.804688 279.511719 286.597656 275.578125 288.1875 M 328.828125 288.855469 C 325.328125 291.195312 324.179688 296.542969 326.289062 300.671875 C 327.601562 303.25 329.90625 304.492188 333.414062 304.507812 C 337.820312 304.53125 340.699219 301.738281 341.152344 296.996094 C 341.5 293.347656 339.894531 289.9375 337.191406 288.585938 C 334.597656 287.292969 330.996094 287.40625 328.828125 288.855469 M 257.542969 295.851562 C 255.925781 300.085938 254.597656 303.738281 254.597656 303.957031 C 254.597656 304.179688 255.457031 304.289062 256.503906 304.203125 C 258.164062 304.0625 258.488281 303.804688 259.019531 302.222656 C 259.613281 300.449219 259.695312 300.402344 262.390625 300.402344 C 265.089844 300.402344 265.171875 300.449219 265.765625 302.222656 C 266.292969 303.804688 266.621094 304.0625 268.277344 304.203125 C 269.324219 304.289062 270.183594 304.148438 270.183594 303.886719 C 270.183594 303.625 268.921875 300.046875 267.378906 295.933594 L 264.578125 288.457031 L 262.53125 288.300781 L 260.488281 288.144531 Z M 291.398438 291.964844 C 290.417969 294.648438 289.429688 297.332031 288.429688 300.015625 L 286.832031 304.300781 L 288.8125 304.300781 C 290.664062 304.300781 290.839844 304.164062 291.480469 302.222656 C 292.164062 300.144531 292.167969 300.144531 294.917969 300.144531 L 297.671875 300.144531 L 298.292969 302.222656 C 298.882812 304.1875 299.027344 304.300781 300.957031 304.300781 C 302.078125 304.300781 302.917969 304.113281 302.820312 303.886719 C 302.726562 303.660156 301.363281 300.039062 299.792969 295.839844 L 296.933594 288.207031 L 294.851562 288.203125 L 292.773438 288.195312 Z M 308.621094 288.566406 C 308.621094 288.804688 309.289062 290.746094 310.101562 292.882812 C 311.070312 295.433594 312.039062 297.984375 313.003906 300.535156 C 314.417969 304.273438 314.441406 304.300781 316.34375 304.300781 L 318.261719 304.300781 L 321.105469 296.691406 C 322.105469 294.007812 323.109375 291.324219 324.117188 288.640625 C 324.214844 288.398438 323.394531 288.195312 322.296875 288.195312 L 320.300781 288.195312 L 318.535156 293.410156 C 317.566406 296.277344 316.59375 298.734375 316.378906 298.867188 C 316.160156 299.003906 315.183594 296.714844 314.210938 293.785156 L 312.4375 288.457031 L 310.53125 288.296875 C 309.480469 288.207031 308.621094 288.328125 308.621094 288.566406 M 342.386719 288.566406 C 342.386719 288.804688 343.050781 290.746094 343.863281 292.882812 C 344.835938 295.433594 345.804688 297.984375 346.769531 300.535156 C 348.175781 304.265625 348.207031 304.300781 350.09375 304.300781 L 351.996094 304.296875 L 354.792969 296.898438 L 357.832031 288.847656 C 358.003906 288.394531 357.460938 288.195312 356.058594 288.195312 L 354.035156 288.195312 L 352.335938 293.378906 C 351.402344 296.230469 350.460938 298.667969 350.25 298.800781 C 350.035156 298.933594 349.027344 296.660156 348.011719 293.75 L 346.164062 288.457031 L 344.273438 288.296875 C 343.234375 288.207031 342.386719 288.328125 342.386719 288.566406 M 331.09375 291.589844 C 329.601562 292.632812 328.863281 295.421875 329.417969 297.898438 C 329.949219 300.234375 331.082031 301.183594 333.355469 301.183594 C 335.761719 301.183594 337.191406 299.210938 337.191406 295.894531 C 337.191406 291.746094 334.042969 289.523438 331.09375 291.589844 M 262 293.910156 C 260.632812 297.390625 260.648438 297.546875 262.355469 297.546875 C 264.121094 297.546875 264.21875 297.179688 263.191406 294.429688 L 262.511719 292.613281 Z M 293.898438 295.210938 L 293.101562 297.546875 L 296.613281 297.546875 L 295.816406 295.210938 C 295.375 293.925781 294.945312 292.871094 294.855469 292.871094 C 294.765625 292.871094 294.335938 293.925781 293.898438 295.210938 M 379.785156 321.949219 L 379.785156 324.558594 L 395.945312 324.558594 L 395.785156 322.089844 L 395.628906 319.625 L 379.785156 319.335938 Z M 214.960938 328.417969 C 211.941406 329.226562 209.085938 331.828125 208.289062 334.492188 C 206.773438 339.542969 209.609375 342.832031 217.601562 345.300781 C 220.429688 346.171875 223.164062 347.347656 223.671875 347.910156 C 225.644531 350.089844 223.402344 352.609375 219.488281 352.609375 C 216.9375 352.609375 214.8125 351.363281 214.15625 349.480469 C 213.605469 347.898438 213.566406 347.882812 210.335938 348.039062 L 207.070312 348.191406 L 207.230469 349.75 C 207.871094 356.039062 215.328125 359.746094 223.429688 357.804688 C 229.390625 356.375 232.84375 350.492188 230.445312 345.855469 C 229.210938 343.464844 226.652344 341.894531 221.484375 340.351562 C 216.101562 338.746094 214.375 337.558594 214.894531 335.816406 C 215.398438 334.105469 216.644531 333.390625 219.117188 333.390625 C 221.292969 333.390625 223.433594 334.675781 223.433594 335.984375 C 223.433594 336.277344 224.90625 336.503906 226.808594 336.503906 C 230.445312 336.503906 230.578125 336.371094 229.484375 333.753906 C 228.414062 331.195312 225.46875 328.902344 222.410156 328.246094 C 219.128906 327.542969 218.128906 327.566406 214.960938 328.417969 M 339.878906 328.632812 C 336.445312 329.859375 333.457031 332.707031 331.953125 336.191406 C 330.273438 340.085938 330.335938 346.230469 332.101562 350.054688 C 334.382812 354.992188 338.164062 357.707031 343.425781 358.183594 C 349.84375 358.765625 355.738281 355.296875 357.597656 349.847656 L 358.425781 347.414062 L 354.820312 347.414062 C 351.863281 347.414062 351.214844 347.5625 351.214844 348.246094 C 351.214844 348.703125 350.421875 349.871094 349.449219 350.84375 C 347.90625 352.386719 347.351562 352.609375 345.054688 352.609375 C 342.855469 352.609375 342.121094 352.34375 340.597656 351.007812 C 338.515625 349.179688 337.710938 346.867188 337.726562 342.738281 C 337.734375 339.609375 338.980469 336.316406 340.75 334.742188 C 342.140625 333.503906 346.328125 333.097656 348.097656 334.027344 C 348.8125 334.40625 349.867188 335.582031 350.4375 336.644531 L 351.476562 338.582031 L 358.433594 338.582031 L 357.878906 336.988281 C 356.804688 333.910156 354.136719 330.605469 351.726562 329.375 C 348.382812 327.667969 343.441406 327.359375 339.878906 328.632812 M 382.472656 328.664062 C 375.882812 330.941406 372.027344 338.53125 373.523438 346.285156 C 374.53125 351.488281 376.78125 354.671875 381.015625 356.890625 C 382.710938 357.777344 384.089844 358.019531 387.578125 358.039062 C 391.527344 358.058594 392.292969 357.898438 394.847656 356.503906 C 401.625 352.808594 404.105469 342.941406 400.242188 335.039062 C 397.285156 328.988281 389.558594 326.21875 382.472656 328.664062 M 165.773438 343.285156 L 165.773438 357.851562 L 169.019531 357.699219 L 172.265625 357.542969 L 172.40625 343.128906 L 172.542969 328.714844 L 165.773438 328.714844 Z M 177.84375 343.128906 L 177.980469 357.542969 L 181.214844 357.699219 L 184.449219 357.851562 L 184.59375 348.9375 L 184.734375 340.019531 L 195.640625 357.542969 L 198.890625 357.699219 L 202.136719 357.851562 L 202.136719 328.714844 L 195.40625 328.714844 L 195.265625 337.28125 L 195.125 345.851562 L 189.929688 337.304688 L 184.734375 328.753906 L 181.21875 328.734375 L 177.707031 328.714844 Z M 235.898438 343.25 L 235.898438 357.851562 L 239.144531 357.699219 L 242.390625 357.542969 L 242.539062 352.546875 L 242.6875 347.554688 L 247.476562 347.304688 C 252.769531 347.027344 254.75 346.28125 256.855469 343.78125 C 259.144531 341.058594 259.402344 335.199219 257.351562 332.453125 C 254.90625 329.179688 254.246094 328.988281 244.695312 328.808594 L 235.898438 328.644531 Z M 262.511719 343.128906 L 262.652344 357.542969 L 268.882812 357.542969 L 269.023438 343.128906 L 269.160156 328.714844 L 262.375 328.714844 Z M 274.460938 343.09375 L 274.597656 357.542969 L 277.84375 357.699219 L 281.089844 357.851562 L 281.089844 346.375 L 283.558594 346.375 L 286.027344 346.378906 L 291.738281 357.542969 L 294.984375 357.699219 C 297.269531 357.804688 298.234375 357.664062 298.234375 357.222656 C 298.234375 356.875 296.929688 354.152344 295.339844 351.171875 C 293.75 348.195312 292.519531 345.707031 292.613281 345.648438 C 292.703125 345.589844 293.445312 345.125 294.257812 344.617188 C 297.554688 342.550781 298.722656 335.683594 296.324219 332.472656 C 293.851562 329.160156 293.246094 328.988281 283.382812 328.808594 L 274.320312 328.648438 Z M 306.609375 342.746094 C 303.714844 350.464844 301.347656 357.019531 301.347656 357.316406 C 301.347656 357.644531 302.605469 357.792969 304.585938 357.699219 L 307.824219 357.542969 L 309.117188 354.035156 L 310.410156 350.53125 L 320.445312 350.53125 L 321.675781 354.035156 L 322.90625 357.542969 L 326.152344 357.699219 C 328.550781 357.8125 329.398438 357.675781 329.398438 357.175781 C 329.398438 356.804688 327.0625 350.332031 324.203125 342.789062 C 321.347656 335.25 319.011719 329 319.011719 328.898438 C 319.011719 328.796875 317.402344 328.714844 315.4375 328.714844 L 311.867188 328.714844 Z M 362.125 343.285156 L 362.125 357.851562 L 365.371094 357.699219 L 368.617188 357.542969 L 368.753906 343.128906 L 368.894531 328.714844 L 362.125 328.714844 Z M 406.398438 343.128906 L 406.535156 357.542969 L 409.769531 357.699219 L 413.003906 357.851562 L 413.148438 348.878906 L 413.289062 339.90625 L 418.789062 348.726562 L 424.289062 357.542969 L 430.949219 357.542969 L 431.089844 343.128906 L 431.226562 328.714844 L 424.480469 328.714844 L 424.339844 337.617188 L 424.199219 346.523438 L 418.742188 337.621094 L 413.289062 328.714844 L 406.261719 328.714844 Z M 437.632812 329.632812 C 434.265625 332.363281 434.898438 337.269531 438.832031 338.914062 C 441.230469 339.917969 443.3125 339.425781 444.960938 337.464844 C 448.003906 333.851562 445.660156 328.703125 440.988281 328.726562 C 439.648438 328.734375 438.296875 329.097656 437.632812 329.632812 M 438.453125 331.230469 C 435.921875 333.28125 437.550781 337.542969 440.863281 337.542969 C 442.6875 337.542969 444.714844 335.628906 444.714844 333.910156 C 444.714844 333.414062 444.230469 332.394531 443.640625 331.640625 C 442.351562 330.003906 440.183594 329.832031 438.453125 331.230469 M 439.003906 333.910156 C 439.003906 335.871094 439.191406 336.503906 439.78125 336.503906 C 440.234375 336.503906 440.574219 336.011719 440.597656 335.335938 L 440.628906 334.167969 L 441.195312 335.335938 C 442.070312 337.152344 442.964844 336.75 442.929688 334.558594 C 442.886719 332 442.378906 331.3125 440.53125 331.3125 C 439.042969 331.3125 439.003906 331.378906 439.003906 333.910156 M 440.5625 332.871094 C 440.5625 333.15625 440.792969 333.390625 441.078125 333.390625 C 441.367188 333.390625 441.597656 333.15625 441.597656 332.871094 C 441.597656 332.582031 441.367188 332.351562 441.078125 332.351562 C 440.792969 332.351562 440.5625 332.582031 440.5625 332.871094 M 384.039062 334.410156 C 381.792969 335.820312 380.328125 339.09375 380.320312 342.738281 C 380.300781 348.796875 382.4375 351.988281 386.835938 352.484375 C 391.902344 353.054688 394.847656 349.597656 394.847656 343.078125 C 394.847656 337.085938 392.660156 333.925781 388.242188 333.546875 C 386.363281 333.382812 385.34375 333.59375 384.039062 334.410156 M 242.652344 338.132812 L 242.652344 342.359375 L 246.332031 342.097656 C 250.492188 341.796875 251.375 341.214844 251.820312 338.457031 C 252.074219 336.902344 251.898438 336.351562 250.789062 335.246094 C 249.625 334.082031 249.011719 333.910156 246.050781 333.910156 L 242.652344 333.910156 Z M 281.089844 337.488281 L 281.089844 341.179688 L 284.949219 341.179688 C 288.5 341.179688 288.894531 341.070312 289.882812 339.8125 C 291.21875 338.113281 291.242188 336.96875 289.976562 335.40625 C 289.136719 334.371094 288.425781 334.164062 285.042969 333.996094 L 281.089844 333.792969 Z M 313.882812 340.53125 C 313.234375 342.460938 312.582031 344.328125 312.4375 344.6875 C 312.242188 345.164062 313.019531 345.335938 315.386719 345.335938 C 317.734375 345.335938 318.539062 345.160156 318.371094 344.6875 C 318.246094 344.328125 317.59375 342.460938 316.921875 340.53125 C 316.25 338.601562 315.558594 337.023438 315.378906 337.023438 C 315.203125 337.023438 314.53125 338.601562 313.882812 340.53125 M 203.695312 388.972656 L 203.695312 395.792969 L 205.121094 395.625 C 206.480469 395.472656 206.558594 395.308594 206.734375 392.347656 L 206.914062 389.230469 L 208.105469 392.347656 C 209.074219 394.886719 209.511719 395.460938 210.46875 395.460938 C 211.425781 395.460938 211.859375 394.890625 212.820312 392.347656 L 213.996094 389.230469 L 214.171875 392.347656 C 214.335938 395.308594 214.414062 395.46875 215.769531 395.625 L 217.199219 395.792969 L 217.199219 382.152344 L 215.566406 382.3125 C 214.03125 382.464844 213.824219 382.75 212.21875 386.890625 C 210.523438 391.273438 210.503906 391.292969 209.929688 389.75 C 207.488281 383.171875 207.0625 382.480469 205.355469 382.3125 L 203.695312 382.152344 Z M 219.796875 388.949219 L 219.796875 395.722656 L 224.472656 395.722656 C 229.113281 395.722656 229.148438 395.710938 229.148438 394.421875 C 229.148438 393.183594 229.007812 393.125 226.03125 393.125 L 222.914062 393.125 L 222.914062 391.566406 C 222.914062 390.042969 222.972656 390.007812 225.511719 390.007812 C 227.933594 390.007812 228.109375 389.921875 228.109375 388.710938 C 228.109375 387.496094 227.933594 387.410156 225.511719 387.410156 C 223.085938 387.410156 222.914062 387.324219 222.914062 386.113281 C 222.914062 384.871094 223.050781 384.8125 226.066406 384.8125 C 229.039062 384.8125 229.210938 384.746094 229.054688 383.644531 C 228.898438 382.546875 228.605469 382.46875 224.34375 382.328125 L 219.796875 382.175781 Z M 230.703125 383.515625 C 230.703125 384.757812 230.84375 384.8125 233.820312 384.8125 C 235.535156 384.8125 236.9375 384.933594 236.9375 385.082031 C 236.9375 385.230469 235.535156 387.058594 233.820312 389.148438 C 231.714844 391.714844 230.703125 393.398438 230.703125 394.351562 L 230.703125 395.757812 L 235.769531 395.609375 C 240.539062 395.472656 240.84375 395.394531 240.996094 394.316406 C 241.148438 393.25 240.929688 393.164062 237.734375 393.019531 L 234.3125 392.867188 L 237.441406 389.027344 C 239.648438 386.324219 240.574219 384.75 240.574219 383.703125 L 240.574219 382.214844 L 235.640625 382.214844 C 230.722656 382.214844 230.703125 382.222656 230.703125 383.515625 M 244.410156 383.207031 C 241.789062 384.804688 240.882812 388.816406 242.351562 392.328125 C 243.550781 395.199219 247.292969 396.5 250.667969 395.214844 C 252.054688 394.691406 254.222656 391.699219 253.761719 390.953125 C 253.195312 390.039062 251.058594 390.566406 250.230469 391.828125 C 248.785156 394.03125 245.863281 393.285156 244.976562 390.480469 C 244.449219 388.820312 245.179688 385.925781 246.277344 385.339844 C 247.820312 384.511719 249.339844 384.71875 250.046875 385.851562 C 250.472656 386.535156 251.257812 386.890625 252.339844 386.890625 C 253.730469 386.890625 253.941406 386.730469 253.710938 385.847656 C 253.558594 385.273438 252.746094 384.21875 251.902344 383.507812 C 249.996094 381.90625 246.757812 381.777344 244.410156 383.207031 M 258.699219 383.644531 C 255.925781 390.839844 254.605469 394.527344 254.601562 395.074219 C 254.601562 395.429688 255.195312 395.722656 255.925781 395.722656 C 256.949219 395.722656 257.421875 395.308594 258.007812 393.902344 C 258.695312 392.265625 258.96875 392.085938 260.800781 392.085938 C 262.660156 392.085938 262.878906 392.238281 263.429688 393.902344 C 263.941406 395.449219 264.265625 395.722656 265.605469 395.722656 C 266.636719 395.722656 267.097656 395.5 266.949219 395.074219 C 262.765625 383.25 262.265625 382.214844 260.742188 382.214844 C 259.59375 382.214844 259.121094 382.546875 258.699219 383.644531 M 268.625 388.957031 L 268.625 395.761719 L 273.167969 395.613281 C 277.632812 395.464844 277.714844 395.4375 277.714844 394.164062 C 277.714844 392.949219 277.523438 392.855469 274.746094 392.710938 L 271.777344 392.554688 L 271.480469 382.476562 L 270.054688 382.3125 L 268.625 382.148438 Z M 287.113281 382.65625 C 286.941406 382.933594 285.769531 385.882812 284.507812 389.210938 C 282.722656 393.910156 282.367188 395.328125 282.917969 395.539062 C 284.34375 396.085938 285.476562 395.425781 285.953125 393.769531 C 286.398438 392.214844 286.601562 392.085938 288.625 392.085938 C 290.644531 392.085938 290.847656 392.214844 291.292969 393.769531 C 291.769531 395.425781 292.902344 396.085938 294.332031 395.535156 C 294.886719 395.324219 294.503906 393.839844 292.605469 388.871094 C 290.398438 383.082031 290.039062 382.460938 288.796875 382.316406 C 288.039062 382.230469 287.285156 382.382812 287.113281 382.65625 M 296.675781 388.945312 L 296.675781 395.792969 L 298.101562 395.625 C 299.410156 395.476562 299.546875 395.253906 299.691406 392.996094 C 299.902344 389.671875 301.15625 389.671875 302.90625 392.996094 C 303.910156 394.902344 304.53125 395.5 305.636719 395.625 C 307.371094 395.828125 307.433594 395.21875 305.933594 392.558594 C 304.878906 390.679688 304.863281 390.488281 305.667969 389.59375 C 307.230469 387.867188 307.308594 385.679688 305.867188 384.003906 C 304.695312 382.636719 304.21875 382.484375 300.625 382.304688 L 296.675781 382.101562 Z M 307.929688 382.5625 C 307.738281 382.753906 307.582031 383.335938 307.582031 383.863281 C 307.582031 384.601562 307.984375 384.8125 309.382812 384.8125 L 311.183594 384.8125 L 311.480469 395.460938 L 312.90625 395.625 L 314.335938 395.792969 L 314.335938 384.8125 L 316.152344 384.8125 C 317.746094 384.8125 317.972656 384.652344 317.972656 383.515625 C 317.972656 382.222656 317.949219 382.214844 313.125 382.214844 C 310.457031 382.214844 308.121094 382.371094 307.929688 382.5625 M 319.53125 388.96875 L 319.53125 395.722656 L 324.203125 395.722656 C 328.84375 395.722656 328.878906 395.710938 328.878906 394.421875 C 328.878906 393.183594 328.742188 393.125 325.761719 393.125 L 322.648438 393.125 L 322.648438 391.566406 C 322.648438 390.042969 322.703125 390.007812 325.242188 390.007812 C 327.667969 390.007812 327.839844 389.921875 327.839844 388.710938 C 327.839844 387.496094 327.667969 387.410156 325.242188 387.410156 C 322.820312 387.410156 322.648438 387.324219 322.648438 386.113281 C 322.648438 384.871094 322.785156 384.8125 325.761719 384.8125 C 328.742188 384.8125 328.878906 384.757812 328.878906 383.515625 C 328.878906 382.226562 328.84375 382.214844 324.203125 382.214844 L 319.53125 382.214844 Z M 333.296875 382.816406 C 329.386719 384.953125 330.429688 388.3125 335.546875 390.054688 C 337.300781 390.648438 337.96875 391.152344 337.96875 391.871094 C 337.96875 393.347656 335.484375 393.480469 334.171875 392.074219 C 332.84375 390.648438 330.625 390.828125 330.855469 392.347656 C 330.941406 392.917969 331.625 393.9375 332.378906 394.609375 C 333.542969 395.65625 334.148438 395.800781 336.5 395.605469 C 339.859375 395.328125 341.347656 394.15625 341.347656 391.785156 C 341.347656 389.777344 339.589844 388.136719 336.898438 387.628906 C 334.992188 387.273438 333.789062 386.210938 334.320312 385.355469 C 334.816406 384.550781 336.96875 384.699219 337.710938 385.59375 C 338.679688 386.757812 340.828125 386.605469 340.828125 385.371094 C 340.828125 382.964844 336.007812 381.332031 333.296875 382.816406 M 347.21875 383.125 C 347.039062 383.625 345.992188 386.359375 344.898438 389.199219 C 343.800781 392.039062 342.90625 394.671875 342.90625 395.042969 C 342.90625 395.425781 343.484375 395.722656 344.230469 395.722656 C 345.253906 395.722656 345.726562 395.308594 346.316406 393.902344 C 347 392.265625 347.277344 392.085938 349.105469 392.085938 C 350.964844 392.085938 351.1875 392.238281 351.734375 393.902344 C 352.238281 395.429688 352.578125 395.722656 353.855469 395.722656 C 354.6875 395.722656 355.371094 395.5625 355.371094 395.363281 C 355.371094 395.164062 354.289062 392.128906 352.964844 388.609375 C 350.648438 382.453125 350.503906 382.214844 349.054688 382.214844 C 348.089844 382.214844 347.429688 382.542969 347.21875 383.125 M 357.15625 382.898438 C 357.011719 383.273438 356.960938 386.253906 357.042969 389.519531 L 357.191406 395.460938 L 358.617188 395.625 L 360.046875 395.792969 L 360.046875 387.671875 L 361.996094 390.839844 C 364.664062 395.171875 365.179688 395.722656 366.601562 395.722656 L 367.839844 395.722656 L 367.839844 382.148438 L 366.410156 382.3125 C 365.03125 382.46875 364.972656 382.605469 364.722656 386.105469 L 364.460938 389.738281 L 362.195312 385.976562 C 360.382812 382.972656 359.675781 382.214844 358.671875 382.214844 C 357.980469 382.214844 357.300781 382.523438 357.15625 382.898438 M 374.378906 382.65625 C 374.210938 382.933594 373.035156 385.882812 371.773438 389.210938 C 369.992188 393.910156 369.636719 395.328125 370.183594 395.539062 C 371.613281 396.085938 372.746094 395.425781 373.21875 393.769531 C 373.664062 392.214844 373.867188 392.085938 375.890625 392.085938 C 377.910156 392.085938 378.113281 392.214844 378.558594 393.769531 C 379.035156 395.425781 380.167969 396.085938 381.597656 395.535156 C 382.152344 395.324219 381.769531 393.839844 379.875 388.871094 C 377.664062 383.082031 377.304688 382.460938 376.0625 382.316406 C 375.308594 382.230469 374.550781 382.382812 374.378906 382.65625 M 383.941406 388.957031 L 383.941406 395.761719 L 388.484375 395.613281 C 392.949219 395.464844 393.03125 395.4375 393.03125 394.164062 C 393.03125 392.949219 392.84375 392.855469 390.0625 392.710938 L 387.09375 392.554688 L 386.796875 382.476562 L 385.371094 382.3125 L 383.941406 382.148438 Z M 299.792969 386.371094 C 299.792969 387.796875 299.941406 387.929688 301.554688 387.929688 C 302.625 387.929688 303.429688 387.632812 303.609375 387.167969 C 304.011719 386.121094 302.589844 384.8125 301.054688 384.8125 C 299.996094 384.8125 299.792969 385.070312 299.792969 386.371094 M 259.9375 388.160156 C 259.398438 389.921875 259.429688 390.007812 260.621094 390.007812 C 262.011719 390.007812 262.164062 389.304688 261.171875 387.511719 C 260.511719 386.324219 260.5 386.328125 259.9375 388.160156 M 287.917969 387.945312 C 287.15625 390.132812 287.109375 390.007812 288.65625 390.007812 C 289.800781 390.007812 289.941406 389.839844 289.632812 388.839844 C 288.878906 386.371094 288.527344 386.1875 287.917969 387.945312 M 348.238281 388.175781 C 347.699219 389.9375 347.730469 390.007812 348.984375 390.007812 C 350.148438 390.007812 350.25 389.851562 349.9375 388.578125 C 349.378906 386.324219 348.847656 386.199219 348.238281 388.175781 M 375.183594 387.945312 C 374.421875 390.132812 374.378906 390.007812 375.925781 390.007812 C 377.066406 390.007812 377.207031 389.839844 376.902344 388.839844 C 376.144531 386.371094 375.796875 386.1875 375.183594 387.945312 " fill-opacity="1" fill-rule="evenodd"/></svg>