<svg viewBox="0 0 612 791.999994" xmlns="http://www.w3.org/2000/svg">
    <path d="M 326.859375 236.558594 C 321.808594 261.71875 316.617188 277.78125 308.441406 293.53125 C 299.214844 311.3125 285.304688 331.191406 247.589844 380.488281 C 233.222656 399.265625 230.652344 403.257812 228.015625 410.878906 C 226.136719 416.308594 226.117188 416.464844 226.148438 425.820312 C 226.179688 434.503906 226.308594 435.6875 227.710938 440.285156 C 231.828125 453.742188 241.292969 468.371094 253.460938 480.085938 C 261.734375 488.050781 268.59375 492.285156 276.453125 494.289062 C 281.265625 495.515625 289.703125 495.117188 295.089844 493.410156 C 304.476562 490.4375 317.070312 482.765625 324.3125 475.605469 C 330.675781 469.316406 336.59375 460.339844 338.738281 453.726562 C 339.210938 452.269531 341.058594 449.984375 344.585938 446.496094 C 354.433594 436.761719 359.335938 426.609375 359.335938 415.957031 L 359.335938 411.605469 L 363.207031 406.820312 C 367.621094 401.367188 371.078125 394.726562 372.785156 388.429688 C 374.359375 382.621094 374.40625 370.535156 372.875 364.390625 L 371.84375 360.25 L 373.226562 356.324219 C 374.496094 352.722656 374.609375 351.59375 374.621094 342.664062 C 374.628906 333.785156 374.496094 332.425781 373.105469 327.207031 C 372.265625 324.0625 370.71875 319.261719 369.667969 316.542969 C 367.757812 311.601562 367.757812 311.597656 368.074219 304.460938 C 368.445312 296.121094 367.53125 290.394531 364.757812 283.730469 C 362.820312 279.066406 357.984375 271.59375 353.941406 267.011719 C 351.769531 264.546875 350.996094 263.089844 349.96875 259.523438 C 347.167969 249.800781 342.285156 241.621094 334.59375 233.777344 C 331.820312 230.945312 329.304688 228.632812 329 228.632812 C 328.695312 228.632812 327.734375 232.199219 326.859375 236.558594 M 332.957031 243.683594 C 332.800781 244.125 332.035156 247.363281 331.253906 250.882812 C 327.09375 269.636719 320.789062 286.910156 313.160156 300.460938 C 302.753906 318.949219 290.335938 336.519531 254.269531 383.789062 C 239.480469 403.167969 236.945312 407.121094 234.777344 414.136719 C 229.339844 431.757812 237.726562 453.949219 257.246094 473.59375 C 264.984375 481.382812 271.117188 485.191406 278.886719 487.023438 C 283.933594 488.214844 285.359375 488.117188 285.347656 486.59375 C 285.335938 484.214844 282.152344 476.195312 279.621094 472.152344 C 276.480469 467.136719 273.289062 463.789062 266.316406 458.183594 C 257.222656 450.882812 252.117188 444.601562 248.722656 436.546875 C 247.414062 433.433594 247.257812 432.359375 247.28125 426.65625 C 247.3125 419.320312 248.308594 416.019531 252.902344 408.023438 C 258.019531 399.121094 262.976562 393.207031 286.722656 367.695312 C 308.894531 343.875 319.71875 330.617188 328.847656 316.105469 C 334.066406 307.808594 340.292969 295.304688 342.351562 289 C 346.398438 276.589844 345.34375 264.441406 339.160156 252.273438 C 336.503906 247.046875 333.324219 242.644531 332.957031 243.683594 M 351.609375 281.546875 C 350.535156 288.5625 348.140625 295.339844 343.265625 305.152344 C 332.742188 326.328125 321.226562 341.355469 288.933594 376.039062 C 267.132812 399.453125 263.15625 404.296875 258.613281 412.984375 C 254.589844 420.671875 253.613281 424.945312 254.5625 430.6875 C 254.753906 431.835938 255.0625 432.761719 255.253906 432.742188 C 255.441406 432.726562 257.597656 430.171875 260.046875 427.066406 C 265.445312 420.222656 284.058594 401.105469 293.976562 392.230469 C 297.957031 388.667969 305.089844 382.527344 309.832031 378.585938 C 319.613281 370.449219 335.019531 355.265625 340.636719 348.226562 C 356.664062 328.136719 363.328125 309.757812 360.210938 294.253906 C 359.261719 289.542969 355.5625 280.808594 353.410156 278.207031 L 352.320312 276.890625 Z M 360.90625 330.371094 C 352.359375 347.820312 338.089844 364.257812 313.445312 385.050781 C 297.90625 398.160156 284.496094 410.699219 275.289062 420.730469 C 267.828125 428.859375 259.210938 439.4375 259.210938 440.46875 C 259.210938 440.792969 260.597656 442.554688 262.292969 444.382812 L 265.375 447.714844 L 274.671875 438.421875 C 285.199219 427.898438 293 421.230469 307.695312 410.191406 C 335.324219 389.429688 352.828125 374.722656 358.929688 367.144531 C 365.601562 358.855469 368.035156 351.296875 367.515625 340.5 C 367.230469 334.597656 365.441406 325.09375 364.457031 324.257812 C 364.242188 324.074219 362.644531 326.824219 360.90625 330.371094 M 361.839844 374.800781 C 354.441406 382.753906 337.117188 397.160156 314.882812 413.859375 C 308.636719 418.550781 300.5 424.902344 296.804688 427.976562 C 289.824219 433.777344 274.414062 448.542969 272.410156 451.347656 L 271.261719 452.957031 L 272.886719 454.128906 C 273.777344 454.773438 275.417969 456.117188 276.527344 457.113281 L 278.546875 458.925781 L 283.757812 454.425781 C 297.710938 442.378906 318.1875 428.492188 339.867188 416.363281 C 358.035156 406.203125 366.597656 393.414062 366.625 376.394531 C 366.632812 373.074219 366.558594 370.28125 366.464844 370.1875 C 366.367188 370.097656 364.289062 372.171875 361.839844 374.800781 M 347.933594 419.953125 C 346.097656 421.113281 340.59375 424.375 335.695312 427.207031 C 325.136719 433.316406 309.792969 443.328125 301.878906 449.273438 C 294.582031 454.757812 283.6875 463.882812 283.6875 464.511719 C 283.6875 465.363281 288.210938 471.996094 288.703125 471.863281 C 288.960938 471.796875 291.339844 470.324219 293.992188 468.597656 C 301.0625 463.988281 310.046875 458.902344 320.121094 453.808594 C 331.296875 448.160156 335.976562 444.945312 341.457031 439.15625 C 346.375 433.960938 349.917969 427.808594 351.253906 422.144531 C 352.222656 418.035156 352.25 417.738281 351.6875 417.804688 C 351.460938 417.828125 349.769531 418.796875 347.933594 419.953125 M 320.542969 461.789062 C 310.699219 466.917969 303.683594 470.96875 296.839844 475.464844 C 291.484375 478.988281 291.371094 479.109375 291.730469 480.816406 C 291.9375 481.773438 292.246094 483.390625 292.425781 484.40625 C 292.714844 486.074219 292.890625 486.21875 294.195312 485.894531 C 299.039062 484.683594 311.496094 477.222656 317.570312 471.886719 C 321.863281 468.117188 329.851562 457.804688 328.480469 457.804688 C 328.320312 457.804688 324.75 459.597656 320.542969 461.789062 " fill-rule="evenodd" fill="#D4A574"/>
</svg>
